<svg id="Layer_2" data-name="Layer 2" xmlns="http://www.w3.org/2000/svg" viewBox="0 0 180 180"><defs><style>.cls-1{stroke:#682828;stroke-miterlimit:10;fill-rule:evenodd;}</style></defs><title>logo 180x180</title><path class="cls-1" d="M142.61523,78.30957a10.52439,10.52439,0,0,0-3.31348-3.27344,8.76707,8.76707,0,0,0-4.71094-1.2373,8.60767,8.60767,0,0,0-4.62988,1.2373,10.67871,10.67871,0,0,0-3.31348,3.2334,15.31317,15.31317,0,0,0-1.99609,4.55078,20.79575,20.79575,0,0,0,0,10.53906,15.83821,15.83821,0,0,0,1.99609,4.59082,10.48381,10.48381,0,0,0,3.31348,3.27344,8.59054,8.59054,0,0,0,4.62988,1.2373,8.74984,8.74984,0,0,0,4.71094-1.2373,10.5039,10.5039,0,0,0,3.31348-3.27344,15.16227,15.16227,0,0,0,1.95605-4.59082,21.63484,21.63484,0,0,0,.63867-5.26953,21.32653,21.32653,0,0,0-.63867-5.18945A15.18325,15.18325,0,0,0,142.61523,78.30957Z"/><path class="cls-1" d="M88.99994,8.99982C44.81744,8.99982,9.00006,41.171,9.00006,80.855c0,19.56128,8.70258,37.297,22.8197,50.2533,8.49609,7.79877,57.18018,42.89178,57.18018,42.89178V152.70972c44.18262,0,80-32.17078,80-71.85468C168.99994,41.171,133.18256,8.99982,88.99994,8.99982ZM40.70117,108.92773a2.05527,2.05527,0,0,1-.2793,1.27832,1.4143,1.4143,0,0,1-1.07812.31934h-7.9043a1.28235,1.28235,0,0,1-.99707-.31934,2.04078,2.04078,0,0,1-.28027-1.27832V67.332a2.31387,2.31387,0,0,1,.24023-1.27734,1.26494,1.26494,0,0,1,1.03711-.31934h7.9043a1.41037,1.41037,0,0,1,1.07813.31934,2.05182,2.05182,0,0,1,.2793,1.27734Zm-.71875-51.81592a5.9168,5.9168,0,0,1-4.4707,1.83643,5.82243,5.82243,0,0,1-4.3916-1.83643,6.22661,6.22661,0,0,1-1.75586-4.4707,6.44507,6.44507,0,0,1,1.7168-4.51123,5.73109,5.73109,0,0,1,4.43066-1.876,5.86031,5.86031,0,0,1,4.4707,1.876,6.3687,6.3687,0,0,1,1.75684,4.51123A6.22745,6.22745,0,0,1,39.98242,57.11182Zm42.55469,51.81592a1.85748,1.85748,0,0,1-.31934,1.27832,1.70917,1.70917,0,0,1-1.19824.31934h-7.4248q-1.59814,0-1.59668-1.67676V84.17773q0-9.65918-5.82812-9.66016a8.05914,8.05914,0,0,0-6.3877,2.63477,10.50219,10.50219,0,0,0-2.31543,7.18555v24.58984a1.85748,1.85748,0,0,1-.31934,1.27832,1.70461,1.70461,0,0,1-1.19727.31934h-7.4248a1.59454,1.59454,0,0,1-1.27832-.39941,2.05021,2.05021,0,0,1-.31934-1.27734V77.63086q0-3.03223.04-6.14746a31.71124,31.71124,0,0,0-.19922-4.71094q-.16113-.87744.15918-1.11719a2.74491,2.74491,0,0,1,1.4375-.23926h7.585a2.43593,2.43593,0,0,1,1.11816.15918c.15918.10742.23926.39941.23926.87793V69.4873a17.99811,17.99811,0,0,1,4.35059-3.2334,11.1897,11.1897,0,0,1,5.46973-1.47656q7.98193,0,11.69629,4.55078,3.71191,4.5498,3.71289,13.25293Zm30.1377-54.57031a1.38248,1.38248,0,0,1-.998-.19971,9.20206,9.20206,0,0,0-2.07617-.63867,7.85368,7.85368,0,0,0-2.23437,0q-2.07715.32007-2.79492,3.03418a11.33848,11.33848,0,0,0-.24023,1.916q-.0791,1.27808-.07812,2.87451v3.99219H110.958q.958,0,1.23828.35938a2.073,2.073,0,0,1,.2793,1.2373v6.627a2.071,2.071,0,0,1-.2793,1.2373,1.56056,1.56056,0,0,1-1.23828.35938h-6.70508v33.77148a1.71011,1.71011,0,0,1-.35937,1.27832,1.7297,1.7297,0,0,1-1.1582.31934H95.30957a1.703,1.703,0,0,1-1.19727-.31934,1.853,1.853,0,0,1-.31836-1.27832V75.15625H88.2041q-1.51758,0-1.5166-1.59668v-6.627q0-1.59668,1.5166-1.59668h5.58984V61.90234a42.29347,42.29347,0,0,1,.51758-6.62646,17.44274,17.44274,0,0,1,1.916-5.78857,10.61838,10.61838,0,0,1,3.834-3.99219,13.02147,13.02147,0,0,1,6.26563-1.63672,20.40384,20.40384,0,0,1,3.51367.15967,10.36811,10.36811,0,0,1,2.79492.63916,1.48648,1.48648,0,0,1,.71875.51855,1.58917,1.58917,0,0,1,.08008.91846l-.40039,7.34521Q113.03418,54.23853,112.6748,54.35742Zm38.124,49.94043a18.92178,18.92178,0,0,1-7.06641,5.62793,21.77853,21.77853,0,0,1-9.1416,1.877,20.90721,20.90721,0,0,1-9.2207-1.916,19.53926,19.53926,0,0,1-6.627-5.14941,22.09307,22.09307,0,0,1-4.03223-7.54492,30.12642,30.12642,0,0,1-1.35742-9.10254,30.98713,30.98713,0,0,1,1.31738-9.10156,21.58852,21.58852,0,0,1,3.99219-7.54492,19.00156,19.00156,0,0,1,6.667-5.10937,21.55916,21.55916,0,0,1,9.26074-1.876,21.17245,21.17245,0,0,1,9.26172,1.916,19.44531,19.44531,0,0,1,6.667,5.14941,22.19748,22.19748,0,0,1,4.03125,7.50488,30.83153,30.83153,0,0,1,.04,17.96387A22.40739,22.40739,0,0,1,150.79883,104.29785Z"/></svg>